<svg width="137" height="29" xmlns="http://www.w3.org/2000/svg"><g transform="translate(0 -2)" fill="none" fill-rule="evenodd"><path d="M40.455 24.657H33.97V7.483h6.51c1.468 0 2.656.393 3.565 1.178.908.786 1.362 1.821 1.362 3.106 0 .89-.287 1.698-.863 2.428-.575.73-1.275 1.17-2.1 1.322v.095c1.166.15 2.096.607 2.79 1.368.695.762 1.042 1.714 1.042 2.857 0 1.507-.514 2.688-1.541 3.54-1.028.854-2.454 1.28-4.279 1.28zM36.111 9.375v5.51h3.213c1.27 0 2.24-.245 2.91-.737.671-.492 1.006-1.202 1.006-2.13 0-.85-.281-1.502-.845-1.958-.563-.457-1.365-.685-2.404-.685h-3.88zm0 13.39h4.023c1.293 0 2.273-.258 2.94-.774.666-.516 1-1.27 1-2.261 0-.992-.348-1.74-1.042-2.244-.694-.504-1.728-.755-3.1-.755H36.11v6.034zm17.746 2.106c-1.714 0-3.099-.575-4.154-1.725-1.055-1.15-1.583-2.71-1.583-4.678 0-1.976.528-3.537 1.583-4.683 1.055-1.147 2.44-1.72 4.154-1.72 1.706 0 3.086.573 4.141 1.72 1.056 1.146 1.583 2.707 1.583 4.683 0 1.968-.527 3.527-1.583 4.678-1.055 1.15-2.435 1.725-4.141 1.725zm0-1.82c1.095 0 1.971-.4 2.63-1.197.659-.797.988-1.926.988-3.386 0-1.46-.33-2.588-.988-3.386-.659-.797-1.535-1.196-2.63-1.196s-1.974.399-2.637 1.196c-.662.798-.993 1.926-.993 3.386 0 1.46.33 2.589.993 3.386.663.798 1.542 1.196 2.637 1.196zm13.282 1.82c-1.714 0-3.098-.575-4.154-1.725-1.055-1.15-1.583-2.71-1.583-4.678 0-1.976.528-3.537 1.583-4.683 1.056-1.147 2.44-1.72 4.154-1.72 1.706 0 3.087.573 4.142 1.72 1.055 1.146 1.583 2.707 1.583 4.683 0 1.968-.528 3.527-1.583 4.678-1.055 1.15-2.436 1.725-4.142 1.725zm0-1.82c1.095 0 1.972-.4 2.63-1.197.659-.797.988-1.926.988-3.386 0-1.46-.329-2.588-.988-3.386-.658-.797-1.535-1.196-2.63-1.196s-1.974.399-2.636 1.196c-.663.798-.994 1.926-.994 3.386 0 1.46.331 2.589.994 3.386.662.798 1.541 1.196 2.636 1.196zm10.33-5.273l.554-.554c.37-.369.826-.827 1.37-1.374l1.63-1.643c.543-.547 1-1.005 1.368-1.374l.554-.554h2.511l-5.368 5.344 5.535 7.034h-2.404l-4.595-5.76-1.154 1.095v4.665h-2.071V7.483h2.07v10.295zm9.784-2.083c0-1.063.423-1.934 1.268-2.612.845-.679 1.938-1.018 3.279-1.018 1.357 0 2.454.357 3.29 1.071.838.714 1.276 1.619 1.316 2.714H94.43c-.08-.65-.347-1.163-.803-1.536-.457-.372-1.066-.559-1.827-.559-.754 0-1.361.17-1.821.512-.46.341-.69.781-.69 1.32 0 .43.162.79.487 1.084.326.294.834.524 1.524.69l1.964.476c1.253.302 2.134.714 2.642 1.238s.762 1.23.762 2.119c0 1.079-.455 1.962-1.363 2.648-.909.686-2.053 1.03-3.434 1.03-1.452 0-2.61-.342-3.475-1.024-.865-.683-1.357-1.603-1.476-2.761h2.07c.128.706.43 1.231.905 1.577.477.345 1.135.517 1.976.517s1.504-.166 1.988-.5c.484-.333.726-.777.726-1.333 0-.444-.141-.803-.423-1.077-.281-.273-.775-.498-1.482-.672l-1.963-.476c-2.31-.556-3.464-1.698-3.464-3.428zm12.01 8.962V7.483h2.07v6.772h.048c.349-.69.857-1.228 1.523-1.613.667-.385 1.468-.577 2.404-.577 1.357 0 2.422.42 3.196 1.262.774.84 1.16 1.951 1.16 3.332v7.998h-2.07V17.04c0-.984-.246-1.754-.738-2.309-.492-.555-1.222-.833-2.19-.833-1.032 0-1.845.323-2.44.97s-.893 1.505-.893 2.577v7.212h-2.07zm18.34-10.795c-.968 0-1.765.333-2.392 1-.627.666-.972 1.515-1.036 2.547h6.725c-.024-1.04-.335-1.89-.934-2.553-.6-.663-1.387-.994-2.363-.994zm3.25 7.248h2.034c-.174 1.08-.74 1.976-1.696 2.69s-2.108 1.071-3.457 1.071c-1.77 0-3.162-.573-4.178-1.72-1.015-1.146-1.523-2.691-1.523-4.635 0-1.92.508-3.476 1.523-4.666 1.016-1.19 2.377-1.785 4.083-1.785 1.674 0 2.993.561 3.957 1.684.964 1.123 1.446 2.62 1.446 4.493v.786h-8.879v.119c0 1.182.326 2.132.976 2.85.65.718 1.532 1.077 2.643 1.077.785 0 1.45-.182 1.993-.547.544-.365.903-.837 1.077-1.417zm4.724 3.547V7.483h2.071v17.174h-2.07zm5.88 0V23.58v-2.672-3.184-2.666-1.077h-1.726V12.28h1.726V10.9c0-1.19.28-2.073.839-2.649.56-.575 1.41-.862 2.553-.862.444 0 .865.031 1.261.095V9.16a6.666 6.666 0 0 0-.94-.071c-.555 0-.97.15-1.244.452-.273.301-.41.758-.41 1.368v1.37h2.535v1.701h-2.523v10.676h-2.071z" fill="#000"/><circle fill="#CF6CF7" cx="5.713" cy="21.427" r="3.484"/><circle fill="#FF6163" cx="19.304" cy="8.275" r="4.818"/><circle cx="8.357" cy="8.136" r="7.577" transform="translate(11.143 14.6)" fill="#97CF26"/><circle cx="6.129" cy="6.129" r="6.129" transform="translate(0 2.343)" fill="#0AF"/></g></svg>